<mxfile host="app.diagrams.net" modified="2023-05-30T20:55:16.910Z" agent="Mozilla/5.0 (Windows NT 10.0; Win64; x64; rv:109.0) Gecko/20100101 Firefox/113.0" etag="aUS8NIhlkUwuN2S6-Tc9" version="21.3.6" type="device" pages="3">
  <diagram name="Page-1" id="NRLE5QT62AbYSh7q1RxX">
    <mxGraphModel dx="819" dy="447" grid="1" gridSize="10" guides="1" tooltips="1" connect="1" arrows="1" fold="1" page="1" pageScale="1" pageWidth="850" pageHeight="1100" math="0" shadow="0">
      <root>
        <mxCell id="0" />
        <mxCell id="1" parent="0" />
        <mxCell id="btgFZBu5aH6P6C4e3eSE-1" value="" style="rounded=0;whiteSpace=wrap;html=1;fillColor=none;glass=0;shadow=0;" vertex="1" parent="1">
          <mxGeometry x="50" y="270" width="480" height="220" as="geometry" />
        </mxCell>
        <mxCell id="btgFZBu5aH6P6C4e3eSE-3" value="IMAGES" style="rounded=0;whiteSpace=wrap;html=1;" vertex="1" parent="1">
          <mxGeometry x="70" y="300" width="120" height="40" as="geometry" />
        </mxCell>
        <mxCell id="btgFZBu5aH6P6C4e3eSE-4" value="SOUNDS" style="rounded=0;whiteSpace=wrap;html=1;" vertex="1" parent="1">
          <mxGeometry x="70" y="360" width="120" height="40" as="geometry" />
        </mxCell>
        <mxCell id="btgFZBu5aH6P6C4e3eSE-6" value="STORAGE" style="rounded=0;whiteSpace=wrap;html=1;" vertex="1" parent="1">
          <mxGeometry x="70" y="420" width="120" height="40" as="geometry" />
        </mxCell>
        <mxCell id="btgFZBu5aH6P6C4e3eSE-17" value="" style="edgeStyle=orthogonalEdgeStyle;rounded=0;orthogonalLoop=1;jettySize=auto;html=1;" edge="1" parent="1" source="btgFZBu5aH6P6C4e3eSE-7" target="btgFZBu5aH6P6C4e3eSE-8">
          <mxGeometry relative="1" as="geometry" />
        </mxCell>
        <mxCell id="btgFZBu5aH6P6C4e3eSE-18" value="" style="edgeStyle=orthogonalEdgeStyle;rounded=0;orthogonalLoop=1;jettySize=auto;html=1;" edge="1" parent="1" source="btgFZBu5aH6P6C4e3eSE-7" target="btgFZBu5aH6P6C4e3eSE-9">
          <mxGeometry relative="1" as="geometry" />
        </mxCell>
        <mxCell id="btgFZBu5aH6P6C4e3eSE-7" value="&lt;p&gt;&amp;nbsp;SHARED&lt;/p&gt;" style="rounded=0;whiteSpace=wrap;html=1;" vertex="1" parent="1">
          <mxGeometry x="400" y="360" width="120" height="40" as="geometry" />
        </mxCell>
        <mxCell id="btgFZBu5aH6P6C4e3eSE-8" value="MAIN" style="rounded=0;whiteSpace=wrap;html=1;" vertex="1" parent="1">
          <mxGeometry x="240" y="360" width="120" height="40" as="geometry" />
        </mxCell>
        <mxCell id="btgFZBu5aH6P6C4e3eSE-9" value="GRID" style="rounded=0;whiteSpace=wrap;html=1;" vertex="1" parent="1">
          <mxGeometry x="400" y="280" width="120" height="40" as="geometry" />
        </mxCell>
        <mxCell id="btgFZBu5aH6P6C4e3eSE-28" value="" style="rounded=0;whiteSpace=wrap;html=1;fillColor=none;opacity=99;" vertex="1" parent="1">
          <mxGeometry x="60" y="280" width="140" height="200" as="geometry" />
        </mxCell>
        <mxCell id="btgFZBu5aH6P6C4e3eSE-30" value="" style="endArrow=classic;startArrow=classic;html=1;rounded=0;exitX=1;exitY=0.5;exitDx=0;exitDy=0;entryX=0;entryY=0.5;entryDx=0;entryDy=0;" edge="1" parent="1" source="btgFZBu5aH6P6C4e3eSE-28" target="btgFZBu5aH6P6C4e3eSE-8">
          <mxGeometry width="50" height="50" relative="1" as="geometry">
            <mxPoint x="260" y="450" as="sourcePoint" />
            <mxPoint x="310" y="400" as="targetPoint" />
          </mxGeometry>
        </mxCell>
        <mxCell id="btgFZBu5aH6P6C4e3eSE-31" value="&lt;b&gt;IO&lt;/b&gt;" style="text;html=1;strokeColor=none;fillColor=none;align=center;verticalAlign=middle;whiteSpace=wrap;rounded=0;" vertex="1" parent="1">
          <mxGeometry x="110" y="460" width="35" height="20" as="geometry" />
        </mxCell>
        <mxCell id="btgFZBu5aH6P6C4e3eSE-32" value="&lt;font style=&quot;font-size: 13px;&quot;&gt;&lt;b&gt;&lt;font style=&quot;font-size: 13px;&quot;&gt;ROAD-NET&lt;/font&gt; COMPONENTS&lt;/b&gt;&lt;/font&gt;" style="text;html=1;strokeColor=none;fillColor=none;align=center;verticalAlign=middle;whiteSpace=wrap;rounded=0;" vertex="1" parent="1">
          <mxGeometry x="240" y="450" width="175" height="30" as="geometry" />
        </mxCell>
        <mxCell id="btgFZBu5aH6P6C4e3eSE-34" value="" style="endArrow=classic;startArrow=classic;html=1;rounded=0;exitX=0.5;exitY=0;exitDx=0;exitDy=0;entryX=0;entryY=0.5;entryDx=0;entryDy=0;" edge="1" parent="1" source="btgFZBu5aH6P6C4e3eSE-8" target="btgFZBu5aH6P6C4e3eSE-9">
          <mxGeometry width="50" height="50" relative="1" as="geometry">
            <mxPoint x="285" y="330" as="sourcePoint" />
            <mxPoint x="335" y="280" as="targetPoint" />
            <Array as="points">
              <mxPoint x="300" y="300" />
            </Array>
          </mxGeometry>
        </mxCell>
      </root>
    </mxGraphModel>
  </diagram>
  <diagram id="k56u3Y-bAEnLxftxdA4r" name="More Details">
    <mxGraphModel dx="819" dy="447" grid="1" gridSize="10" guides="1" tooltips="1" connect="1" arrows="1" fold="1" page="1" pageScale="1" pageWidth="850" pageHeight="1100" math="0" shadow="0">
      <root>
        <mxCell id="0" />
        <mxCell id="1" parent="0" />
        <mxCell id="gwb3Psc2zYcNcPu7QiEd-1" value="" style="rounded=0;whiteSpace=wrap;html=1;fillColor=none;" vertex="1" parent="1">
          <mxGeometry x="30" y="180" width="260" height="80" as="geometry" />
        </mxCell>
        <mxCell id="gwb3Psc2zYcNcPu7QiEd-2" value="&lt;font face=&quot;Courier New&quot;&gt;Destination Objectives&lt;/font&gt;" style="rounded=0;whiteSpace=wrap;html=1;" vertex="1" parent="1">
          <mxGeometry x="40" y="190" width="100" height="40" as="geometry" />
        </mxCell>
        <mxCell id="gwb3Psc2zYcNcPu7QiEd-3" value="&lt;font face=&quot;Courier New&quot;&gt;Grid Primitive&lt;/font&gt;" style="rounded=0;whiteSpace=wrap;html=1;" vertex="1" parent="1">
          <mxGeometry x="180" y="190" width="100" height="40" as="geometry" />
        </mxCell>
        <mxCell id="gwb3Psc2zYcNcPu7QiEd-5" value="&lt;b&gt;&lt;font style=&quot;font-size: 13px;&quot; face=&quot;Courier New&quot;&gt;GRID&lt;/font&gt;&lt;/b&gt;" style="text;html=1;strokeColor=none;fillColor=none;align=center;verticalAlign=middle;whiteSpace=wrap;rounded=0;" vertex="1" parent="1">
          <mxGeometry x="128.75" y="240" width="62.5" height="20" as="geometry" />
        </mxCell>
        <mxCell id="gwb3Psc2zYcNcPu7QiEd-6" value="" style="rounded=0;whiteSpace=wrap;html=1;fillColor=none;" vertex="1" parent="1">
          <mxGeometry x="320" y="80" width="240" height="280" as="geometry" />
        </mxCell>
        <mxCell id="gwb3Psc2zYcNcPu7QiEd-7" value="&lt;font face=&quot;Courier New&quot;&gt;InfoPanel&lt;/font&gt;" style="rounded=0;whiteSpace=wrap;html=1;fillColor=none;" vertex="1" parent="1">
          <mxGeometry x="340" y="100" width="80" height="40" as="geometry" />
        </mxCell>
        <mxCell id="gwb3Psc2zYcNcPu7QiEd-10" value="&lt;font face=&quot;Courier New&quot;&gt;Node&lt;/font&gt;" style="rounded=0;whiteSpace=wrap;html=1;fillColor=none;" vertex="1" parent="1">
          <mxGeometry x="340" y="280" width="80" height="40" as="geometry" />
        </mxCell>
        <mxCell id="gwb3Psc2zYcNcPu7QiEd-11" value="&lt;font face=&quot;Courier New&quot;&gt;Vehicle&lt;br&gt;&lt;/font&gt;" style="rounded=0;whiteSpace=wrap;html=1;fillColor=none;" vertex="1" parent="1">
          <mxGeometry x="460" y="190" width="80" height="40" as="geometry" />
        </mxCell>
        <mxCell id="gwb3Psc2zYcNcPu7QiEd-12" value="&lt;font face=&quot;Courier New&quot;&gt;Road Runner Linker&lt;/font&gt;" style="rounded=0;whiteSpace=wrap;html=1;fillColor=none;" vertex="1" parent="1">
          <mxGeometry x="340" y="190" width="80" height="40" as="geometry" />
        </mxCell>
        <mxCell id="gwb3Psc2zYcNcPu7QiEd-17" value="&lt;font face=&quot;Courier New&quot;&gt;Message&lt;/font&gt;" style="rounded=0;whiteSpace=wrap;html=1;fillColor=none;" vertex="1" parent="1">
          <mxGeometry x="460" y="100" width="80" height="40" as="geometry" />
        </mxCell>
        <mxCell id="gwb3Psc2zYcNcPu7QiEd-23" value="" style="rounded=0;whiteSpace=wrap;html=1;fillColor=none;" vertex="1" parent="1">
          <mxGeometry x="330" y="90" width="220" height="60" as="geometry" />
        </mxCell>
        <mxCell id="gwb3Psc2zYcNcPu7QiEd-25" value="&lt;font face=&quot;Courier New&quot;&gt;Node Position&lt;br&gt;&lt;/font&gt;" style="rounded=0;whiteSpace=wrap;html=1;fillColor=none;" vertex="1" parent="1">
          <mxGeometry x="460" y="280" width="80" height="40" as="geometry" />
        </mxCell>
        <mxCell id="S_k7ydXAX8KpUyd_uifY-5" value="" style="edgeStyle=orthogonalEdgeStyle;rounded=0;orthogonalLoop=1;jettySize=auto;html=1;" edge="1" parent="1" source="S_k7ydXAX8KpUyd_uifY-1" target="S_k7ydXAX8KpUyd_uifY-4">
          <mxGeometry relative="1" as="geometry" />
        </mxCell>
        <mxCell id="S_k7ydXAX8KpUyd_uifY-1" value="" style="rounded=0;whiteSpace=wrap;html=1;fillColor=none;" vertex="1" parent="1">
          <mxGeometry x="330" y="270" width="220" height="60" as="geometry" />
        </mxCell>
        <mxCell id="S_k7ydXAX8KpUyd_uifY-4" value="" style="rounded=0;whiteSpace=wrap;html=1;fillColor=none;" vertex="1" parent="1">
          <mxGeometry x="330" y="180" width="220" height="60" as="geometry" />
        </mxCell>
        <mxCell id="S_k7ydXAX8KpUyd_uifY-6" value="" style="endArrow=classic;startArrow=classic;html=1;rounded=0;exitX=1;exitY=0.5;exitDx=0;exitDy=0;entryX=0;entryY=0.5;entryDx=0;entryDy=0;" edge="1" parent="1" source="gwb3Psc2zYcNcPu7QiEd-10" target="gwb3Psc2zYcNcPu7QiEd-25">
          <mxGeometry width="50" height="50" relative="1" as="geometry">
            <mxPoint x="430" y="410" as="sourcePoint" />
            <mxPoint x="480" y="360" as="targetPoint" />
          </mxGeometry>
        </mxCell>
        <mxCell id="S_k7ydXAX8KpUyd_uifY-7" value="" style="endArrow=classic;startArrow=classic;html=1;rounded=0;exitX=1;exitY=0.5;exitDx=0;exitDy=0;entryX=0;entryY=0.5;entryDx=0;entryDy=0;" edge="1" parent="1" source="gwb3Psc2zYcNcPu7QiEd-12" target="gwb3Psc2zYcNcPu7QiEd-11">
          <mxGeometry width="50" height="50" relative="1" as="geometry">
            <mxPoint x="540" y="260" as="sourcePoint" />
            <mxPoint x="590" y="210" as="targetPoint" />
          </mxGeometry>
        </mxCell>
        <mxCell id="S_k7ydXAX8KpUyd_uifY-8" value="" style="endArrow=classic;startArrow=classic;html=1;rounded=0;exitX=1;exitY=0.5;exitDx=0;exitDy=0;entryX=0;entryY=0.5;entryDx=0;entryDy=0;" edge="1" parent="1" source="gwb3Psc2zYcNcPu7QiEd-7" target="gwb3Psc2zYcNcPu7QiEd-17">
          <mxGeometry width="50" height="50" relative="1" as="geometry">
            <mxPoint x="560" y="190" as="sourcePoint" />
            <mxPoint x="610" y="140" as="targetPoint" />
          </mxGeometry>
        </mxCell>
        <mxCell id="S_k7ydXAX8KpUyd_uifY-9" value="&lt;font style=&quot;font-size: 13px;&quot; face=&quot;Courier New&quot;&gt;&lt;b&gt;SHARED&lt;/b&gt;&lt;/font&gt;" style="text;html=1;strokeColor=none;fillColor=none;align=center;verticalAlign=middle;whiteSpace=wrap;rounded=0;" vertex="1" parent="1">
          <mxGeometry x="410" y="340" width="60" height="20" as="geometry" />
        </mxCell>
        <mxCell id="It2zazeQHcCcmTnKSvh2-1" value="" style="endArrow=classic;startArrow=classic;html=1;rounded=0;exitX=1;exitY=0.5;exitDx=0;exitDy=0;entryX=0;entryY=0.5;entryDx=0;entryDy=0;" edge="1" parent="1" source="gwb3Psc2zYcNcPu7QiEd-2" target="gwb3Psc2zYcNcPu7QiEd-3">
          <mxGeometry width="50" height="50" relative="1" as="geometry">
            <mxPoint x="170" y="290" as="sourcePoint" />
            <mxPoint x="220" y="240" as="targetPoint" />
          </mxGeometry>
        </mxCell>
      </root>
    </mxGraphModel>
  </diagram>
  <diagram id="DfkDgJJSVkTHs8ykuVzE" name="Page-3">
    <mxGraphModel dx="1434" dy="782" grid="1" gridSize="10" guides="1" tooltips="1" connect="1" arrows="1" fold="1" page="1" pageScale="1" pageWidth="850" pageHeight="1100" math="0" shadow="0">
      <root>
        <mxCell id="0" />
        <mxCell id="1" parent="0" />
      </root>
    </mxGraphModel>
  </diagram>
</mxfile>
